<?xml version="1.0" encoding="us-ascii" standalone="no"?><svg xmlns="http://www.w3.org/2000/svg" xmlns:xlink="http://www.w3.org/1999/xlink" contentStyleType="text/css" height="1100px" preserveAspectRatio="none" style="width:1094px;height:1100px;background:#FFFFFF;" version="1.1" viewBox="0 0 1094 1100" width="1094px" zoomAndPan="magnify"><defs/><g><text fill="#000000" font-family="sans-serif" font-size="14" font-weight="bold" lengthAdjust="spacing" textLength="210" x="438" y="27.9951">&#30005;&#23376;&#25903;&#20184;&#36164;&#37329;&#27969;&#19982;&#20449;&#24687;&#27969;&#20840;&#26223;&#22270;</text><text fill="#000000" font-family="sans-serif" font-size="14" font-weight="bold" lengthAdjust="spacing" textLength="180" x="453" y="44.292">&#65288;&#20174;&#29992;&#25143;&#24863;&#30693;&#21040;&#26368;&#32456;&#20132;&#21106;&#65289;</text><rect fill="#FFFFFF" height="274.1953" style="stroke:#181818;stroke-width:1.0;" width="10" x="141.5" y="164.1563"/><rect fill="#FFFFFF" height="129.5313" style="stroke:#181818;stroke-width:1.0;" width="10" x="355.5" y="250.5547"/><rect fill="#FFFFFF" height="50.2656" style="stroke:#181818;stroke-width:1.0;" width="10" x="355.5" y="596.0156"/><rect fill="#FFFFFF" height="71.2656" style="stroke:#181818;stroke-width:1.0;" width="10" x="522.5" y="279.6875"/><rect fill="#FFFFFF" height="178.7969" style="stroke:#181818;stroke-width:1.0;" width="10" x="738.5" y="762.6797"/><line style="stroke:#181818;stroke-width:0.5;stroke-dasharray:5.0,5.0;" x1="30" x2="30" y1="89.8906" y2="1064.875"/><line style="stroke:#181818;stroke-width:0.5;stroke-dasharray:5.0,5.0;" x1="146.5" x2="146.5" y1="89.8906" y2="1064.875"/><line style="stroke:#181818;stroke-width:0.5;stroke-dasharray:5.0,5.0;" x1="360.5" x2="360.5" y1="89.8906" y2="1064.875"/><line style="stroke:#181818;stroke-width:0.5;stroke-dasharray:5.0,5.0;" x1="527.5" x2="527.5" y1="89.8906" y2="1064.875"/><line style="stroke:#181818;stroke-width:0.5;stroke-dasharray:5.0,5.0;" x1="743.5" x2="743.5" y1="89.8906" y2="1064.875"/><line style="stroke:#181818;stroke-width:0.5;stroke-dasharray:5.0,5.0;" x1="939.5" x2="939.5" y1="89.8906" y2="1064.875"/><rect fill="#FFBBCC" height="30.2969" rx="2.5" ry="2.5" style="stroke:#181818;stroke-width:0.5;" width="51" x="5" y="58.5938"/><text fill="#000000" font-family="sans-serif" font-size="14" lengthAdjust="spacing" textLength="37" x="12" y="78.5889">&#29992;&#25143;A</text><rect fill="#FFBBCC" height="30.2969" rx="2.5" ry="2.5" style="stroke:#181818;stroke-width:0.5;" width="51" x="5" y="1063.875"/><text fill="#000000" font-family="sans-serif" font-size="14" lengthAdjust="spacing" textLength="37" x="12" y="1083.8701">&#29992;&#25143;A</text><rect fill="#ADD8E6" height="30.2969" rx="2.5" ry="2.5" style="stroke:#181818;stroke-width:0.5;" width="56" x="118.5" y="58.5938"/><text fill="#000000" font-family="sans-serif" font-size="14" lengthAdjust="spacing" textLength="42" x="125.5" y="78.5889">&#25903;&#20184;&#23453;</text><rect fill="#ADD8E6" height="30.2969" rx="2.5" ry="2.5" style="stroke:#181818;stroke-width:0.5;" width="56" x="118.5" y="1063.875"/><text fill="#000000" font-family="sans-serif" font-size="14" lengthAdjust="spacing" textLength="42" x="125.5" y="1083.8701">&#25903;&#20184;&#23453;</text><rect fill="#FFFFE0" height="30.2969" rx="2.5" ry="2.5" style="stroke:#181818;stroke-width:0.5;" width="70" x="325.5" y="58.5938"/><text fill="#000000" font-family="sans-serif" font-size="14" lengthAdjust="spacing" textLength="56" x="332.5" y="78.5889">&#32593;&#32852;&#24179;&#21488;</text><rect fill="#FFFFE0" height="30.2969" rx="2.5" ry="2.5" style="stroke:#181818;stroke-width:0.5;" width="70" x="325.5" y="1063.875"/><text fill="#000000" font-family="sans-serif" font-size="14" lengthAdjust="spacing" textLength="56" x="332.5" y="1083.8701">&#32593;&#32852;&#24179;&#21488;</text><rect fill="#90EE90" height="30.2969" rx="2.5" ry="2.5" style="stroke:#181818;stroke-width:0.5;" width="70" x="492.5" y="58.5938"/><text fill="#000000" font-family="sans-serif" font-size="14" lengthAdjust="spacing" textLength="56" x="499.5" y="78.5889">&#25307;&#21830;&#38134;&#34892;</text><rect fill="#90EE90" height="30.2969" rx="2.5" ry="2.5" style="stroke:#181818;stroke-width:0.5;" width="70" x="492.5" y="1063.875"/><text fill="#000000" font-family="sans-serif" font-size="14" lengthAdjust="spacing" textLength="56" x="499.5" y="1083.8701">&#25307;&#21830;&#38134;&#34892;</text><rect fill="#FFD700" height="30.2969" rx="2.5" ry="2.5" style="stroke:#181818;stroke-width:0.5;" width="98" x="694.5" y="58.5938"/><text fill="#000000" font-family="sans-serif" font-size="14" lengthAdjust="spacing" textLength="84" x="701.5" y="78.5889">&#20013;&#22269;&#20154;&#27665;&#38134;&#34892;</text><rect fill="#FFD700" height="30.2969" rx="2.5" ry="2.5" style="stroke:#181818;stroke-width:0.5;" width="98" x="694.5" y="1063.875"/><text fill="#000000" font-family="sans-serif" font-size="14" lengthAdjust="spacing" textLength="84" x="701.5" y="1083.8701">&#20013;&#22269;&#20154;&#27665;&#38134;&#34892;</text><rect fill="#E2E2F0" height="30.2969" rx="2.5" ry="2.5" style="stroke:#181818;stroke-width:0.5;" width="52" x="913.5" y="58.5938"/><text fill="#000000" font-family="sans-serif" font-size="14" lengthAdjust="spacing" textLength="38" x="920.5" y="78.5889">&#21830;&#23478;B</text><rect fill="#E2E2F0" height="30.2969" rx="2.5" ry="2.5" style="stroke:#181818;stroke-width:0.5;" width="52" x="913.5" y="1063.875"/><text fill="#000000" font-family="sans-serif" font-size="14" lengthAdjust="spacing" textLength="38" x="920.5" y="1083.8701">&#21830;&#23478;B</text><rect fill="#FFFFFF" height="274.1953" style="stroke:#181818;stroke-width:1.0;" width="10" x="141.5" y="164.1563"/><rect fill="#FFFFFF" height="129.5313" style="stroke:#181818;stroke-width:1.0;" width="10" x="355.5" y="250.5547"/><rect fill="#FFFFFF" height="50.2656" style="stroke:#181818;stroke-width:1.0;" width="10" x="355.5" y="596.0156"/><rect fill="#FFFFFF" height="71.2656" style="stroke:#181818;stroke-width:1.0;" width="10" x="522.5" y="279.6875"/><rect fill="#FFFFFF" height="178.7969" style="stroke:#181818;stroke-width:1.0;" width="10" x="738.5" y="762.6797"/><rect fill="#EEEEEE" height="3" style="stroke:#EEEEEE;stroke-width:1.0;" width="1087" x="0" y="120.457"/><line style="stroke:#000000;stroke-width:1.0;" x1="0" x2="1087" y1="120.457" y2="120.457"/><line style="stroke:#000000;stroke-width:1.0;" x1="0" x2="1087" y1="123.457" y2="123.457"/><rect fill="#EEEEEE" height="23.1328" style="stroke:#000000;stroke-width:2.0;" width="214" x="436.5" y="109.8906"/><text fill="#000000" font-family="sans-serif" font-size="13" font-weight="bold" lengthAdjust="spacing" textLength="195" x="442.5" y="125.9575">&#31532;1&#38454;&#27573;&#65306;&#20132;&#26131; (Transaction)</text><polygon fill="#181818" points="129.5,160.1563,139.5,164.1563,129.5,168.1563,133.5,164.1563" style="stroke:#181818;stroke-width:1.0;"/><line style="stroke:#181818;stroke-width:1.0;" x1="30.5" x2="135.5" y1="164.1563" y2="164.1563"/><text fill="#000000" font-family="sans-serif" font-size="13" lengthAdjust="spacing" textLength="92" x="37.5" y="159.0903">&#28857;&#20987;&#8220;&#20184;&#27454;&#8221;&#25353;&#38062;</text><line style="stroke:#181818;stroke-width:1.0;" x1="151.5" x2="193.5" y1="208.4219" y2="208.4219"/><line style="stroke:#181818;stroke-width:1.0;" x1="193.5" x2="193.5" y1="208.4219" y2="221.4219"/><line style="stroke:#181818;stroke-width:1.0;" x1="152.5" x2="193.5" y1="221.4219" y2="221.4219"/><polygon fill="#181818" points="162.5,217.4219,152.5,221.4219,162.5,225.4219,158.5,221.4219" style="stroke:#181818;stroke-width:1.0;"/><text fill="#000000" font-family="sans-serif" font-size="13" lengthAdjust="spacing" textLength="78" x="158.5" y="188.2231">&#29983;&#25104;&#25903;&#20184;&#25351;&#20196;</text><text fill="#000000" font-family="sans-serif" font-size="13" lengthAdjust="spacing" textLength="190" x="158.5" y="203.356">&#20869;&#37096;&#35760;&#36134;&#65306;&#21830;&#23478; B &#20313;&#39069; +100 &#20803;</text><polygon fill="#181818" points="343.5,246.5547,353.5,250.5547,343.5,254.5547,347.5,250.5547" style="stroke:#181818;stroke-width:1.0;"/><line style="stroke:#181818;stroke-width:1.0;" x1="151.5" x2="349.5" y1="250.5547" y2="250.5547"/><text fill="#000000" font-family="sans-serif" font-size="13" lengthAdjust="spacing" textLength="94" x="158.5" y="245.4888">3. &#21457;&#36865;&#25903;&#20184;&#35831;&#27714;</text><polygon fill="#181818" points="510.5,275.6875,520.5,279.6875,510.5,283.6875,514.5,279.6875" style="stroke:#181818;stroke-width:1.0;"/><line style="stroke:#181818;stroke-width:1.0;" x1="365.5" x2="516.5" y1="279.6875" y2="279.6875"/><text fill="#000000" font-family="sans-serif" font-size="13" lengthAdjust="spacing" textLength="94" x="372.5" y="274.6216">4. &#36716;&#21457;&#25187;&#27454;&#35831;&#27714;</text><line style="stroke:#181818;stroke-width:1.0;" x1="532.5" x2="574.5" y1="308.8203" y2="308.8203"/><line style="stroke:#181818;stroke-width:1.0;" x1="574.5" x2="574.5" y1="308.8203" y2="321.8203"/><line style="stroke:#181818;stroke-width:1.0;" x1="533.5" x2="574.5" y1="321.8203" y2="321.8203"/><polygon fill="#181818" points="543.5,317.8203,533.5,321.8203,543.5,325.8203,539.5,321.8203" style="stroke:#181818;stroke-width:1.0;"/><text fill="#000000" font-family="sans-serif" font-size="13" lengthAdjust="spacing" textLength="192" x="539.5" y="303.7544">5. &#23454;&#26102;&#20923;&#32467;&#29992;&#25143;A&#36134;&#25143;100&#20803;&#39069;&#24230;</text><polygon fill="#181818" points="376.5,346.9531,366.5,350.9531,376.5,354.9531,372.5,350.9531" style="stroke:#181818;stroke-width:1.0;"/><line style="stroke:#181818;stroke-width:1.0;stroke-dasharray:2.0,2.0;" x1="370.5" x2="526.5" y1="350.9531" y2="350.9531"/><text fill="#000000" font-family="sans-serif" font-size="13" lengthAdjust="spacing" textLength="94" x="382.5" y="345.8872">6. &#36820;&#22238;&#25187;&#27454;&#25104;&#21151;</text><polygon fill="#181818" points="162.5,376.0859,152.5,380.0859,162.5,384.0859,158.5,380.0859" style="stroke:#181818;stroke-width:1.0;"/><line style="stroke:#181818;stroke-width:1.0;stroke-dasharray:2.0,2.0;" x1="156.5" x2="359.5" y1="380.0859" y2="380.0859"/><text fill="#000000" font-family="sans-serif" font-size="13" lengthAdjust="spacing" textLength="94" x="168.5" y="375.02">7. &#36820;&#22238;&#25903;&#20184;&#25104;&#21151;</text><polygon fill="#181818" points="41.5,405.2188,31.5,409.2188,41.5,413.2188,37.5,409.2188" style="stroke:#181818;stroke-width:1.0;"/><line style="stroke:#181818;stroke-width:1.0;" x1="35.5" x2="140.5" y1="409.2188" y2="409.2188"/><text fill="#000000" font-family="sans-serif" font-size="13" lengthAdjust="spacing" textLength="78" x="47.5" y="404.1528">&#36890;&#30693;&#25903;&#20184;&#25104;&#21151;</text><polygon fill="#181818" points="927.5,434.3516,937.5,438.3516,927.5,442.3516,931.5,438.3516" style="stroke:#181818;stroke-width:1.0;"/><line style="stroke:#181818;stroke-width:1.0;" x1="146.5" x2="933.5" y1="438.3516" y2="438.3516"/><text fill="#000000" font-family="sans-serif" font-size="13" lengthAdjust="spacing" textLength="156" x="153.5" y="433.2856">&#36890;&#30693;&#25910;&#27454;&#25104;&#21151;&#65288;&#20313;&#39069;&#24050;&#28072;&#65289;</text><path d="M35,451.3516 L35,476.3516 L173,476.3516 L173,461.3516 L163,451.3516 L35,451.3516 " fill="#FEFFDD" style="stroke:#181818;stroke-width:0.5;"/><path d="M163,451.3516 L163,461.3516 L173,461.3516 L163,451.3516 " fill="#FEFFDD" style="stroke:#181818;stroke-width:0.5;"/><text fill="#000000" font-family="sans-serif" font-size="13" lengthAdjust="spacing" textLength="117" x="41" y="468.4185">&#29992;&#25143;&#35748;&#20026;&#25903;&#20184;&#24050;&#23436;&#25104;</text><path d="M944,486.4844 L944,526.4844 L1082,526.4844 L1082,496.4844 L1072,486.4844 L944,486.4844 " fill="#FEFFDD" style="stroke:#181818;stroke-width:0.5;"/><path d="M1072,486.4844 L1072,496.4844 L1082,496.4844 L1072,486.4844 " fill="#FEFFDD" style="stroke:#181818;stroke-width:0.5;"/><text fill="#000000" font-family="sans-serif" font-size="13" lengthAdjust="spacing" textLength="104" x="950" y="503.5513">&#21830;&#23478;&#30475;&#21040;&#20313;&#39069;&#22686;&#38271;</text><text fill="#000000" font-family="sans-serif" font-size="13" lengthAdjust="spacing" textLength="117" x="950" y="518.6841">&#65288;&#25903;&#20184;&#23453;&#22443;&#20184;&#20449;&#29992;&#65289;</text><rect fill="#EEEEEE" height="3" style="stroke:#EEEEEE;stroke-width:1.0;" width="1087" x="0" y="552.3164"/><line style="stroke:#000000;stroke-width:1.0;" x1="0" x2="1087" y1="552.3164" y2="552.3164"/><line style="stroke:#000000;stroke-width:1.0;" x1="0" x2="1087" y1="555.3164" y2="555.3164"/><rect fill="#EEEEEE" height="23.1328" style="stroke:#000000;stroke-width:2.0;" width="190" x="448.5" y="541.75"/><text fill="#000000" font-family="sans-serif" font-size="13" font-weight="bold" lengthAdjust="spacing" textLength="171" x="454.5" y="557.8169">&#31532;2&#38454;&#27573;&#65306;&#28165;&#20998; (Clearing)</text><polygon fill="#181818" points="343.5,592.0156,353.5,596.0156,343.5,600.0156,347.5,596.0156" style="stroke:#181818;stroke-width:1.0;"/><line style="stroke:#181818;stroke-width:1.0;" x1="146.5" x2="349.5" y1="596.0156" y2="596.0156"/><text fill="#000000" font-family="sans-serif" font-size="13" lengthAdjust="spacing" textLength="104" x="153.5" y="590.9497">&#23450;&#26102;&#25209;&#37327;&#25171;&#21253;&#20132;&#26131;</text><line style="stroke:#181818;stroke-width:1.0;" x1="365.5" x2="407.5" y1="645.2813" y2="645.2813"/><line style="stroke:#181818;stroke-width:1.0;" x1="407.5" x2="407.5" y1="645.2813" y2="658.2813"/><line style="stroke:#181818;stroke-width:1.0;" x1="360.5" x2="407.5" y1="658.2813" y2="658.2813"/><polygon fill="#181818" points="370.5,654.2813,360.5,658.2813,370.5,662.2813,366.5,658.2813" style="stroke:#181818;stroke-width:1.0;"/><text fill="#000000" font-family="sans-serif" font-size="13" lengthAdjust="spacing" textLength="143" x="372.5" y="625.0825">&#35745;&#31639;&#26426;&#26500;&#38388;&#20538;&#26435;&#20538;&#21153;&#20928;&#39069;</text><text fill="#000000" font-family="sans-serif" font-size="13" lengthAdjust="spacing" textLength="78" x="372.5" y="640.2153">&#29983;&#25104;&#28165;&#31639;&#25991;&#20214;</text><rect fill="#EEEEEE" height="3" style="stroke:#EEEEEE;stroke-width:1.0;" width="1087" x="0" y="681.8477"/><line style="stroke:#000000;stroke-width:1.0;" x1="0" x2="1087" y1="681.8477" y2="681.8477"/><line style="stroke:#000000;stroke-width:1.0;" x1="0" x2="1087" y1="684.8477" y2="684.8477"/><rect fill="#EEEEEE" height="23.1328" style="stroke:#000000;stroke-width:2.0;" width="210" x="438.5" y="671.2813"/><text fill="#000000" font-family="sans-serif" font-size="13" font-weight="bold" lengthAdjust="spacing" textLength="191" x="444.5" y="687.3481">&#31532;3&#38454;&#27573;&#65306;&#32467;&#31639; (Settlement)</text><polygon fill="#181818" points="731.5,721.5469,741.5,725.5469,731.5,729.5469,735.5,725.5469" style="stroke:#181818;stroke-width:1.0;"/><line style="stroke:#181818;stroke-width:1.0;" x1="360.5" x2="737.5" y1="725.5469" y2="725.5469"/><text fill="#000000" font-family="sans-serif" font-size="13" lengthAdjust="spacing" textLength="78" x="367.5" y="720.481">&#21457;&#36865;&#32467;&#31639;&#25351;&#20196;</text><line style="stroke:#181818;stroke-width:1.0;" x1="743.5" x2="790.5" y1="749.6797" y2="749.6797"/><line style="stroke:#181818;stroke-width:1.0;" x1="790.5" x2="790.5" y1="749.6797" y2="762.6797"/><line style="stroke:#181818;stroke-width:1.0;" x1="749.5" x2="790.5" y1="762.6797" y2="762.6797"/><polygon fill="#181818" points="759.5,758.6797,749.5,762.6797,759.5,766.6797,755.5,762.6797" style="stroke:#181818;stroke-width:1.0;"/><text fill="#000000" font-family="sans-serif" font-size="13" lengthAdjust="spacing" textLength="182" x="755.5" y="744.6138">&#36890;&#36807;&#22823;&#39069;&#25903;&#20184;&#31995;&#32479;&#21457;&#36215;&#26368;&#32456;&#21010;&#36716;</text><rect fill="#EEEEEE" height="3" style="stroke:#EEEEEE;stroke-width:1.0;" width="1087" x="0" y="796.2461"/><line style="stroke:#000000;stroke-width:1.0;" x1="0" x2="1087" y1="796.2461" y2="796.2461"/><line style="stroke:#000000;stroke-width:1.0;" x1="0" x2="1087" y1="799.2461" y2="799.2461"/><rect fill="#EEEEEE" height="23.1328" style="stroke:#000000;stroke-width:2.0;" width="268" x="409.5" y="785.6797"/><text fill="#000000" font-family="sans-serif" font-size="13" font-weight="bold" lengthAdjust="spacing" textLength="249" x="415.5" y="801.7466">&#31532;4&#38454;&#27573;&#65306;&#20132;&#21106; (Settlement Finality)</text><line style="stroke:#181818;stroke-width:1.0;" x1="748.5" x2="790.5" y1="870.2109" y2="870.2109"/><line style="stroke:#181818;stroke-width:1.0;" x1="790.5" x2="790.5" y1="870.2109" y2="883.2109"/><line style="stroke:#181818;stroke-width:1.0;" x1="749.5" x2="790.5" y1="883.2109" y2="883.2109"/><polygon fill="#181818" points="759.5,879.2109,749.5,883.2109,759.5,887.2109,755.5,883.2109" style="stroke:#181818;stroke-width:1.0;"/><text fill="#000000" font-family="sans-serif" font-size="13" lengthAdjust="spacing" textLength="78" x="755.5" y="834.8794">&#26368;&#32456;&#36164;&#37329;&#21010;&#36716;</text><text fill="#000000" font-family="sans-serif" font-size="13" lengthAdjust="spacing" textLength="121" x="755.5" y="850.0122">&#8595;&#25307;&#34892;&#20934;&#22791;&#37329; 100 &#20803;</text><text fill="#000000" font-family="sans-serif" font-size="13" lengthAdjust="spacing" textLength="134" x="755.5" y="865.145">&#8593;&#25903;&#20184;&#23453;&#22791;&#20184;&#37329; 100 &#20803;</text><polygon fill="#181818" points="538.5,908.3438,528.5,912.3438,538.5,916.3438,534.5,912.3438" style="stroke:#181818;stroke-width:1.0;"/><line style="stroke:#181818;stroke-width:1.0;stroke-dasharray:2.0,2.0;" x1="532.5" x2="737.5" y1="912.3438" y2="912.3438"/><text fill="#000000" font-family="sans-serif" font-size="13" lengthAdjust="spacing" textLength="104" x="544.5" y="907.2778">&#36890;&#30693;&#24050;&#25187;&#20943;&#20934;&#22791;&#37329;</text><polygon fill="#181818" points="157.5,937.4766,147.5,941.4766,157.5,945.4766,153.5,941.4766" style="stroke:#181818;stroke-width:1.0;"/><line style="stroke:#181818;stroke-width:1.0;stroke-dasharray:2.0,2.0;" x1="151.5" x2="742.5" y1="941.4766" y2="941.4766"/><text fill="#000000" font-family="sans-serif" font-size="13" lengthAdjust="spacing" textLength="91" x="163.5" y="936.4106">&#36890;&#30693;&#24050;&#22686;&#22791;&#20184;&#37329;</text><path d="M358,954.4766 L358,979.4766 L522,979.4766 L522,964.4766 L512,954.4766 L358,954.4766 " fill="#FEFFDD" style="stroke:#181818;stroke-width:0.5;"/><path d="M512,954.4766 L512,964.4766 L522,964.4766 L512,954.4766 " fill="#FEFFDD" style="stroke:#181818;stroke-width:0.5;"/><text fill="#000000" font-family="sans-serif" font-size="13" lengthAdjust="spacing" textLength="143" x="364" y="971.5435">&#36164;&#37329;&#22312;&#38134;&#34892;&#23618;&#38754;&#23436;&#25104;&#36716;&#31227;</text><path d="M151,989.6094 L151,1014.6094 L276,1014.6094 L276,999.6094 L266,989.6094 L151,989.6094 " fill="#FEFFDD" style="stroke:#181818;stroke-width:0.5;"/><path d="M266,989.6094 L266,999.6094 L276,999.6094 L266,989.6094 " fill="#FEFFDD" style="stroke:#181818;stroke-width:0.5;"/><text fill="#000000" font-family="sans-serif" font-size="13" lengthAdjust="spacing" textLength="104" x="157" y="1006.6763">&#33719;&#24471;&#26368;&#32456;&#28165;&#31639;&#36164;&#37329;</text><path d="M848,1024.7422 L848,1049.7422 L934,1049.7422 L934,1034.7422 L924,1024.7422 L848,1024.7422 " fill="#FEFFDD" style="stroke:#181818;stroke-width:0.5;"/><path d="M924,1024.7422 L924,1034.7422 L934,1034.7422 L924,1024.7422 " fill="#FEFFDD" style="stroke:#181818;stroke-width:0.5;"/><text fill="#000000" font-family="sans-serif" font-size="13" lengthAdjust="spacing" textLength="65" x="854" y="1041.8091">&#36164;&#37329;&#25152;&#26377;&#26435;</text></g></svg>