<?xml version="1.0" encoding="us-ascii" standalone="no"?><svg xmlns="http://www.w3.org/2000/svg" xmlns:xlink="http://www.w3.org/1999/xlink" contentStyleType="text/css" height="1134px" preserveAspectRatio="none" style="width:754px;height:1134px;background:#FFFFFF;" version="1.1" viewBox="0 0 754 1134" width="754px" zoomAndPan="magnify"><defs/><g><rect fill="#DDDDDD" height="1122.7734" style="stroke:#181818;stroke-width:0.5;" width="190" x="1" y="6"/><text fill="#000000" font-family="sans-serif" font-size="13" font-weight="bold" lengthAdjust="spacing" textLength="70" x="61" y="18.0669">&#29992;&#25143;&#19982;&#38065;&#21253;</text><rect fill="#DDDDDD" height="1122.7734" style="stroke:#181818;stroke-width:0.5;" width="306" x="219" y="6"/><text fill="#000000" font-family="sans-serif" font-size="13" font-weight="bold" lengthAdjust="spacing" textLength="98" x="323" y="18.0669">&#27604;&#29305;&#24065;&#32593;&#32476;&#33410;&#28857;</text><line style="stroke:#181818;stroke-width:0.5;stroke-dasharray:5.0,5.0;" x1="28" x2="28" y1="56.4297" y2="1094.4766"/><line style="stroke:#181818;stroke-width:0.5;stroke-dasharray:5.0,5.0;" x1="143" x2="143" y1="56.4297" y2="1094.4766"/><line style="stroke:#181818;stroke-width:0.5;stroke-dasharray:5.0,5.0;" x1="258" x2="258" y1="56.4297" y2="1094.4766"/><line style="stroke:#181818;stroke-width:0.5;stroke-dasharray:5.0,5.0;" x1="479" x2="479" y1="56.4297" y2="1094.4766"/><rect fill="#E2E2F0" height="30.2969" rx="2.5" ry="2.5" style="stroke:#181818;stroke-width:0.5;" width="46" x="5" y="25.1328"/><text fill="#000000" font-family="sans-serif" font-size="14" lengthAdjust="spacing" textLength="32" x="12" y="45.1279">Alice</text><rect fill="#E2E2F0" height="30.2969" rx="2.5" ry="2.5" style="stroke:#181818;stroke-width:0.5;" width="46" x="5" y="1093.4766"/><text fill="#000000" font-family="sans-serif" font-size="14" lengthAdjust="spacing" textLength="32" x="12" y="1113.4717">Alice</text><rect fill="#E2E2F0" height="30.2969" rx="2.5" ry="2.5" style="stroke:#181818;stroke-width:0.5;" width="88" x="99" y="25.1328"/><text fill="#000000" font-family="sans-serif" font-size="14" lengthAdjust="spacing" textLength="74" x="106" y="45.1279">Alice&#30340;&#38065;&#21253;</text><rect fill="#E2E2F0" height="30.2969" rx="2.5" ry="2.5" style="stroke:#181818;stroke-width:0.5;" width="88" x="99" y="1093.4766"/><text fill="#000000" font-family="sans-serif" font-size="14" lengthAdjust="spacing" textLength="74" x="106" y="1113.4717">Alice&#30340;&#38065;&#21253;</text><rect fill="#E2E2F0" height="30.2969" rx="2.5" ry="2.5" style="stroke:#181818;stroke-width:0.5;" width="70" x="223" y="25.1328"/><text fill="#000000" font-family="sans-serif" font-size="14" lengthAdjust="spacing" textLength="56" x="230" y="45.1279">&#30719;&#24037;&#33410;&#28857;</text><rect fill="#E2E2F0" height="30.2969" rx="2.5" ry="2.5" style="stroke:#181818;stroke-width:0.5;" width="70" x="223" y="1093.4766"/><text fill="#000000" font-family="sans-serif" font-size="14" lengthAdjust="spacing" textLength="56" x="230" y="1113.4717">&#30719;&#24037;&#33410;&#28857;</text><rect fill="#E2E2F0" height="30.2969" rx="2.5" ry="2.5" style="stroke:#181818;stroke-width:0.5;" width="84" x="437" y="25.1328"/><text fill="#000000" font-family="sans-serif" font-size="14" lengthAdjust="spacing" textLength="70" x="444" y="45.1279">Bob&#30340;&#33410;&#28857;</text><rect fill="#E2E2F0" height="30.2969" rx="2.5" ry="2.5" style="stroke:#181818;stroke-width:0.5;" width="84" x="437" y="1093.4766"/><text fill="#000000" font-family="sans-serif" font-size="14" lengthAdjust="spacing" textLength="70" x="444" y="1113.4717">Bob&#30340;&#33410;&#28857;</text><rect fill="#EEEEEE" height="3" style="stroke:#EEEEEE;stroke-width:1.0;" width="747" x="0" y="86.9961"/><line style="stroke:#000000;stroke-width:1.0;" x1="0" x2="747" y1="86.9961" y2="86.9961"/><line style="stroke:#000000;stroke-width:1.0;" x1="0" x2="747" y1="89.9961" y2="89.9961"/><rect fill="#EEEEEE" height="23.1328" style="stroke:#000000;stroke-width:2.0;" width="117" x="315" y="76.4297"/><text fill="#000000" font-family="sans-serif" font-size="13" font-weight="bold" lengthAdjust="spacing" textLength="98" x="321" y="92.4966">&#20132;&#26131;&#21019;&#24314;&#19982;&#24191;&#25773;</text><polygon fill="#181818" points="131,126.6953,141,130.6953,131,134.6953,135,130.6953" style="stroke:#181818;stroke-width:1.0;"/><line style="stroke:#181818;stroke-width:1.0;" x1="28" x2="137" y1="130.6953" y2="130.6953"/><text fill="#000000" font-family="sans-serif" font-size="13" lengthAdjust="spacing" textLength="91" x="35" y="125.6294">1. &#21019;&#24314;&#20132;&#26131;TX1</text><path d="M33,143.6953 L33,213.6953 L228,213.6953 L228,153.6953 L218,143.6953 L33,143.6953 " fill="#FEFFDD" style="stroke:#181818;stroke-width:0.5;"/><path d="M218,143.6953 L218,153.6953 L228,153.6953 L218,143.6953 " fill="#FEFFDD" style="stroke:#181818;stroke-width:0.5;"/><text fill="#000000" font-family="sans-serif" font-size="13" lengthAdjust="spacing" textLength="62" x="39" y="160.7622">TX1&#21253;&#21547;&#65306;</text><text fill="#000000" font-family="sans-serif" font-size="13" lengthAdjust="spacing" textLength="139" x="39" y="175.895">- &#36755;&#20837;&#65306;&#24341;&#29992;&#20043;&#21069;&#25910;&#21040;&#30340;</text><text fill="#FF0000" font-family="sans-serif" font-size="13" lengthAdjust="spacing" textLength="35" x="178" y="175.895">UTXO</text><text fill="#000000" font-family="sans-serif" font-size="13" lengthAdjust="spacing" textLength="151" x="39" y="191.0278">- &#36755;&#20986;&#65306;Bob&#30340;&#22320;&#22336;&#21644;&#37329;&#39069;</text><text fill="#000000" font-family="sans-serif" font-size="13" lengthAdjust="spacing" textLength="22" x="39" y="206.1606">- &#29992;</text><text fill="#FF0000" font-family="sans-serif" font-size="13" lengthAdjust="spacing" textLength="26" x="61" y="206.1606">&#31169;&#38053;</text><text fill="#000000" font-family="sans-serif" font-size="13" lengthAdjust="spacing" textLength="91" x="87" y="206.1606">&#23545;&#20132;&#26131;&#36827;&#34892;&#31614;&#21517;</text><polygon fill="#181818" points="246,236.3594,256,240.3594,246,244.3594,250,240.3594" style="stroke:#181818;stroke-width:1.0;"/><line style="stroke:#181818;stroke-width:1.0;" x1="143" x2="252" y1="240.3594" y2="240.3594"/><text fill="#000000" font-family="sans-serif" font-size="13" lengthAdjust="spacing" textLength="91" x="150" y="235.2935">2. &#24191;&#25773;&#20132;&#26131;TX1</text><rect fill="#EEEEEE" height="3" style="stroke:#EEEEEE;stroke-width:1.0;" width="747" x="0" y="268.9258"/><line style="stroke:#000000;stroke-width:1.0;" x1="0" x2="747" y1="268.9258" y2="268.9258"/><line style="stroke:#000000;stroke-width:1.0;" x1="0" x2="747" y1="271.9258" y2="271.9258"/><rect fill="#EEEEEE" height="23.1328" style="stroke:#000000;stroke-width:2.0;" width="145" x="301" y="258.3594"/><text fill="#000000" font-family="sans-serif" font-size="13" font-weight="bold" lengthAdjust="spacing" textLength="126" x="307" y="274.4263">&#20132;&#26131;&#39564;&#35777;&#19982;&#21306;&#22359;&#26500;&#24314;</text><line style="stroke:#181818;stroke-width:1.0;" x1="258" x2="300" y1="312.625" y2="312.625"/><line style="stroke:#181818;stroke-width:1.0;" x1="300" x2="300" y1="312.625" y2="325.625"/><line style="stroke:#181818;stroke-width:1.0;" x1="259" x2="300" y1="325.625" y2="325.625"/><polygon fill="#181818" points="269,321.625,259,325.625,269,329.625,265,325.625" style="stroke:#181818;stroke-width:1.0;"/><text fill="#000000" font-family="sans-serif" font-size="13" lengthAdjust="spacing" textLength="104" x="265" y="307.5591">3. &#39564;&#35777;TX1&#21512;&#27861;&#24615;</text><path d="M263,338.625 L263,408.625 L458,408.625 L458,348.625 L448,338.625 L263,338.625 " fill="#FEFFDD" style="stroke:#181818;stroke-width:0.5;"/><path d="M448,338.625 L448,348.625 L458,348.625 L448,338.625 " fill="#FEFFDD" style="stroke:#181818;stroke-width:0.5;"/><text fill="#000000" font-family="sans-serif" font-size="13" lengthAdjust="spacing" textLength="65" x="269" y="355.6919">&#39564;&#35777;&#21253;&#25324;&#65306;</text><text fill="#000000" font-family="sans-serif" font-size="13" lengthAdjust="spacing" textLength="5" x="269" y="370.8247">-</text><text fill="#FF0000" font-family="sans-serif" font-size="13" lengthAdjust="spacing" textLength="26" x="278" y="370.8247">&#31614;&#21517;</text><text fill="#000000" font-family="sans-serif" font-size="13" lengthAdjust="spacing" textLength="52" x="304" y="370.8247">&#26159;&#21542;&#26377;&#25928;</text><text fill="#000000" font-family="sans-serif" font-size="13" lengthAdjust="spacing" textLength="35" x="269" y="385.9575">- &#36755;&#20837;</text><text fill="#FF0000" font-family="sans-serif" font-size="13" lengthAdjust="spacing" textLength="35" x="304" y="385.9575">UTXO</text><text fill="#000000" font-family="sans-serif" font-size="13" lengthAdjust="spacing" textLength="104" x="339" y="385.9575">&#26159;&#21542;&#23384;&#22312;&#19988;&#26410;&#33457;&#36153;</text><text fill="#000000" font-family="sans-serif" font-size="13" lengthAdjust="spacing" textLength="169" x="269" y="401.0903">- &#36755;&#20837;&#24635;&#39069;&#26159;&#21542; &gt;= &#36755;&#20986;&#24635;&#39069;</text><line style="stroke:#181818;stroke-width:1.0;" x1="258" x2="300" y1="450.4219" y2="450.4219"/><line style="stroke:#181818;stroke-width:1.0;" x1="300" x2="300" y1="450.4219" y2="463.4219"/><line style="stroke:#181818;stroke-width:1.0;" x1="259" x2="300" y1="463.4219" y2="463.4219"/><polygon fill="#181818" points="269,459.4219,259,463.4219,269,467.4219,265,463.4219" style="stroke:#181818;stroke-width:1.0;"/><text fill="#000000" font-family="sans-serif" font-size="13" lengthAdjust="spacing" textLength="143" x="265" y="430.2231">4. &#23558;TX1&#19982;&#20854;&#20182;&#20132;&#26131;&#25171;&#21253;</text><text fill="#000000" font-family="sans-serif" font-size="13" lengthAdjust="spacing" textLength="26" x="265" y="445.356">&#26500;&#24314;</text><text fill="#FF0000" font-family="sans-serif" font-size="13" lengthAdjust="spacing" textLength="55" x="291" y="445.356">Merkle&#26641;</text><text fill="#000000" font-family="sans-serif" font-size="13" lengthAdjust="spacing" textLength="94" x="346" y="445.356">&#65292;&#35745;&#31639;Merkle&#26681;</text><line style="stroke:#181818;stroke-width:1.0;" x1="258" x2="300" y1="492.5547" y2="492.5547"/><line style="stroke:#181818;stroke-width:1.0;" x1="300" x2="300" y1="492.5547" y2="505.5547"/><line style="stroke:#181818;stroke-width:1.0;" x1="259" x2="300" y1="505.5547" y2="505.5547"/><polygon fill="#181818" points="269,501.5547,259,505.5547,269,509.5547,265,505.5547" style="stroke:#181818;stroke-width:1.0;"/><text fill="#000000" font-family="sans-serif" font-size="13" lengthAdjust="spacing" textLength="94" x="265" y="487.4888">5. &#26500;&#24314;&#26032;&#21306;&#22359;&#22836;</text><path d="M263,518.5547 L263,618.5547 L421,618.5547 L421,528.5547 L411,518.5547 L263,518.5547 " fill="#FEFFDD" style="stroke:#181818;stroke-width:0.5;"/><path d="M411,518.5547 L411,528.5547 L421,528.5547 L411,518.5547 " fill="#FEFFDD" style="stroke:#181818;stroke-width:0.5;"/><text fill="#000000" font-family="sans-serif" font-size="13" lengthAdjust="spacing" textLength="78" x="269" y="535.6216">&#21306;&#22359;&#22836;&#21253;&#21547;&#65306;</text><text fill="#000000" font-family="sans-serif" font-size="13" lengthAdjust="spacing" textLength="120" x="269" y="550.7544">- &#19978;&#19968;&#20010;&#21306;&#22359;&#30340;Hash</text><text fill="#000000" font-family="sans-serif" font-size="13" lengthAdjust="spacing" textLength="5" x="269" y="565.8872">-</text><text fill="#FF0000" font-family="sans-serif" font-size="13" lengthAdjust="spacing" textLength="55" x="278" y="565.8872">Merkle&#26681;</text><text fill="#000000" font-family="sans-serif" font-size="13" lengthAdjust="spacing" textLength="48" x="269" y="581.02">- &#26102;&#38388;&#25139;</text><text fill="#000000" font-family="sans-serif" font-size="13" lengthAdjust="spacing" textLength="61" x="269" y="596.1528">- &#38590;&#24230;&#30446;&#26631;</text><text fill="#000000" font-family="sans-serif" font-size="13" lengthAdjust="spacing" textLength="5" x="269" y="611.2856">-</text><text fill="#FF0000" font-family="sans-serif" font-size="13" lengthAdjust="spacing" textLength="128" x="278" y="611.2856">Nonce (&#20174;0&#24320;&#22987;&#23581;&#35797;)</text><line style="stroke:#181818;stroke-width:1.0;" x1="258" x2="300" y1="660.6172" y2="660.6172"/><line style="stroke:#181818;stroke-width:1.0;" x1="300" x2="300" y1="660.6172" y2="673.6172"/><line style="stroke:#181818;stroke-width:1.0;" x1="259" x2="300" y1="673.6172" y2="673.6172"/><polygon fill="#181818" points="269,669.6172,259,673.6172,269,677.6172,265,673.6172" style="stroke:#181818;stroke-width:1.0;"/><text fill="#000000" font-family="sans-serif" font-size="13" lengthAdjust="spacing" textLength="207" x="265" y="640.4185">6. &#19981;&#26029;&#25913;&#21464;Nonce&#65292;&#35745;&#31639;&#21306;&#22359;Hash</text><text fill="#000000" font-family="sans-serif" font-size="13" lengthAdjust="spacing" textLength="176" x="265" y="655.5513">&#30452;&#21040;&#25214;&#21040;&#28385;&#36275;&#38590;&#24230;&#30446;&#26631;&#30340;Hash</text><rect fill="#EEEEEE" height="3" style="stroke:#EEEEEE;stroke-width:1.0;" width="747" x="0" y="702.1836"/><line style="stroke:#000000;stroke-width:1.0;" x1="0" x2="747" y1="702.1836" y2="702.1836"/><line style="stroke:#000000;stroke-width:1.0;" x1="0" x2="747" y1="705.1836" y2="705.1836"/><rect fill="#EEEEEE" height="23.1328" style="stroke:#000000;stroke-width:2.0;" width="145" x="301" y="691.6172"/><text fill="#000000" font-family="sans-serif" font-size="13" font-weight="bold" lengthAdjust="spacing" textLength="126" x="307" y="707.6841">&#21306;&#22359;&#24191;&#25773;&#19982;&#32593;&#32476;&#20849;&#35782;</text><polygon fill="#181818" points="467,741.8828,477,745.8828,467,749.8828,471,745.8828" style="stroke:#181818;stroke-width:1.0;"/><line style="stroke:#181818;stroke-width:1.0;" x1="258" x2="473" y1="745.8828" y2="745.8828"/><text fill="#000000" font-family="sans-serif" font-size="13" lengthAdjust="spacing" textLength="120" x="265" y="740.8169">7. &#24191;&#25773;&#26032;&#25366;&#20986;&#30340;&#21306;&#22359;</text><line style="stroke:#181818;stroke-width:1.0;" x1="479" x2="521" y1="775.0156" y2="775.0156"/><line style="stroke:#181818;stroke-width:1.0;" x1="521" x2="521" y1="775.0156" y2="788.0156"/><line style="stroke:#181818;stroke-width:1.0;" x1="480" x2="521" y1="788.0156" y2="788.0156"/><polygon fill="#181818" points="490,784.0156,480,788.0156,490,792.0156,486,788.0156" style="stroke:#181818;stroke-width:1.0;"/><text fill="#000000" font-family="sans-serif" font-size="13" lengthAdjust="spacing" textLength="68" x="486" y="769.9497">8. &#39564;&#35777;&#21306;&#22359;</text><path d="M484,801.0156 L484,871.0156 L742,871.0156 L742,811.0156 L732,801.0156 L484,801.0156 " fill="#FEFFDD" style="stroke:#181818;stroke-width:0.5;"/><path d="M732,801.0156 L732,811.0156 L742,811.0156 L732,801.0156 " fill="#FEFFDD" style="stroke:#181818;stroke-width:0.5;"/><text fill="#000000" font-family="sans-serif" font-size="13" lengthAdjust="spacing" textLength="65" x="490" y="818.0825">&#39564;&#35777;&#21253;&#25324;&#65306;</text><text fill="#000000" font-family="sans-serif" font-size="13" lengthAdjust="spacing" textLength="172" x="490" y="833.2153">- &#21306;&#22359;Hash&#26159;&#21542;&#28385;&#36275;&#38590;&#24230;&#30446;&#26631;</text><text fill="#000000" font-family="sans-serif" font-size="13" lengthAdjust="spacing" textLength="165" x="490" y="848.3481">- &#21306;&#22359;&#20869;&#30340;&#27599;&#31508;&#20132;&#26131;&#26159;&#21542;&#21512;&#27861;</text><text fill="#000000" font-family="sans-serif" font-size="13" lengthAdjust="spacing" textLength="100" x="490" y="863.481">- &#21306;&#22359;&#26159;&#21542;&#26500;&#24314;&#22312;</text><text fill="#000000" font-family="sans-serif" font-size="13" font-weight="bold" lengthAdjust="spacing" textLength="98" x="590" y="863.481">&#32047;&#35745;&#24037;&#20316;&#37327;&#26368;&#22823;</text><text fill="#000000" font-family="sans-serif" font-size="13" lengthAdjust="spacing" textLength="39" x="688" y="863.481">&#30340;&#38142;&#19978;</text><line style="stroke:#181818;stroke-width:1.0;" x1="479" x2="521" y1="897.6797" y2="897.6797"/><line style="stroke:#181818;stroke-width:1.0;" x1="521" x2="521" y1="897.6797" y2="910.6797"/><line style="stroke:#181818;stroke-width:1.0;" x1="480" x2="521" y1="910.6797" y2="910.6797"/><polygon fill="#181818" points="490,906.6797,480,910.6797,490,914.6797,486,910.6797" style="stroke:#181818;stroke-width:1.0;"/><text fill="#000000" font-family="sans-serif" font-size="13" lengthAdjust="spacing" textLength="224" x="486" y="892.6138">9. &#39564;&#35777;&#36890;&#36807;&#65292;&#23558;&#21306;&#22359;&#28155;&#21152;&#21040;&#26412;&#22320;&#21306;&#22359;&#38142;</text><path d="M484,923.6797 L484,978.6797 L687,978.6797 L687,933.6797 L677,923.6797 L484,923.6797 " fill="#FEFFDD" style="stroke:#181818;stroke-width:0.5;"/><path d="M677,923.6797 L677,933.6797 L687,933.6797 L677,923.6797 " fill="#FEFFDD" style="stroke:#181818;stroke-width:0.5;"/><text fill="#000000" font-family="sans-serif" font-size="13" font-weight="bold" lengthAdjust="spacing" textLength="144" x="490" y="940.7466">&#8220;&#32047;&#35745;&#24037;&#20316;&#37327;&#26368;&#22823;&#8221;&#21407;&#21017;</text><text fill="#000000" font-family="sans-serif" font-size="13" lengthAdjust="spacing" textLength="170" x="490" y="955.8794">&#21462;&#20195;&#20102;&#31616;&#21333;&#30340;&#8220;&#26368;&#38271;&#38142;&#8221;&#21407;&#21017;&#65292;</text><text fill="#000000" font-family="sans-serif" font-size="13" lengthAdjust="spacing" textLength="182" x="490" y="971.0122">&#30830;&#20445;&#20102;&#27604;&#29305;&#24065;&#32593;&#32476;&#30340;&#23433;&#20840;&#20849;&#35782;&#12290;</text><rect fill="#EEEEEE" height="3" style="stroke:#EEEEEE;stroke-width:1.0;" width="747" x="0" y="1004.6445"/><line style="stroke:#000000;stroke-width:1.0;" x1="0" x2="747" y1="1004.6445" y2="1004.6445"/><line style="stroke:#000000;stroke-width:1.0;" x1="0" x2="747" y1="1007.6445" y2="1007.6445"/><rect fill="#EEEEEE" height="23.1328" style="stroke:#000000;stroke-width:2.0;" width="75" x="336" y="994.0781"/><text fill="#000000" font-family="sans-serif" font-size="13" font-weight="bold" lengthAdjust="spacing" textLength="56" x="342" y="1010.145">&#20132;&#26131;&#30830;&#35748;</text><line style="stroke:#181818;stroke-width:1.0;" x1="479" x2="521" y1="1063.4766" y2="1063.4766"/><line style="stroke:#181818;stroke-width:1.0;" x1="521" x2="521" y1="1063.4766" y2="1076.4766"/><line style="stroke:#181818;stroke-width:1.0;" x1="480" x2="521" y1="1076.4766" y2="1076.4766"/><polygon fill="#181818" points="490,1072.4766,480,1076.4766,490,1080.4766,486,1076.4766" style="stroke:#181818;stroke-width:1.0;"/><text fill="#000000" font-family="sans-serif" font-size="13" lengthAdjust="spacing" textLength="102" x="486" y="1043.2778">10. &#31561;&#24453;&#21518;&#32493;&#21306;&#22359;</text><text fill="#FF0000" font-family="sans-serif" font-size="13" lengthAdjust="spacing" textLength="73" x="588" y="1043.2778">&#65288;6&#27425;&#30830;&#35748;&#65289;</text><text fill="#000000" font-family="sans-serif" font-size="13" lengthAdjust="spacing" textLength="127" x="486" y="1058.4106">&#26368;&#32456;&#30830;&#35748;TX1&#19981;&#21487;&#36870;&#36716;</text></g></svg>